<?xml version="1.0" standalone="no"?><svg xmlns="http://www.w3.org/2000/svg" viewBox="0 0 1440 320"><path fill="#000b76" fill-opacity="0.8" d="M0,256L40,250.7C80,245,160,235,240,240C320,245,400,267,480,250.7C560,235,640,181,720,181.3C800,181,880,235,960,250.7C1040,267,1120,245,1200,240C1280,235,1360,245,1400,250.7L1440,256L1440,320L1400,320C1360,320,1280,320,1200,320C1120,320,1040,320,960,320C880,320,800,320,720,320C640,320,560,320,480,320C400,320,320,320,240,320C160,320,80,320,40,320L0,320Z"></path></svg>